# xmcd
#
# Track frame offsets:
#	150
#	9306
#	31829
#	51860
#	71282
#	74074
#	91864
#	104374
#	126560
#	133247
#	143113
#	157117
#	175348
#	196231
#	217109
#	229077
#	234198
#
# Disc length: 3457 seconds
#
# Revision: 1
# Processed by: cddbd v1.5.2PL0 Copyright (c) Steve Scherf et al.
# Submitted via: EasyCDDAExtractor 10.2.0.1
#
DISCID=f50d7f11
DTITLE=Tim Dillinger  - The Muse
DYEAR=2006
DGENRE=Soul
TTITLE0=The Road I Chose
TTITLE1=That's The Kind Of Love
TTITLE2=I Wish
TTITLE3=You're Gone
TTITLE4=The Universal Source
TTITLE5=Never Let Them Change You
TTITLE6=(I'm Not) Colorblind
TTITLE7=Tell Me That I Can
TTITLE8=I Looked For You This Morning
TTITLE9=That's The Kind Of Love (Reprise)
TTITLE10=It's In The Air
TTITLE11=That's What I Feel
TTITLE12=You Are My Joy
TTITLE13=I Will Stay
TTITLE14=Ode To The Muse
TTITLE15=Seasons Interlude
TTITLE16=Seasons Of Change
EXTD=
EXTT0=
EXTT1=
EXTT2=
EXTT3=
EXTT4=
EXTT5=
EXTT6=
EXTT7=
EXTT8=
EXTT9=
EXTT10=
EXTT11=
EXTT12=
EXTT13=
EXTT14=
EXTT15=
EXTT16=
PLAYORDER=
